<svg width="16" height="16" viewBox="0 0 16 16" fill="none" xmlns="http://www.w3.org/2000/svg">
<path d="M4.5 4.5V4C4.5 3.17157 3.82843 2.5 3 2.5V2.5M4.5 4.5V12V12C4.5 12.8284 5.17157 13.5 6 13.5V13.5H8M4.5 4.5H1.5V4C1.5 3.17157 2.17157 2.5 3 2.5V2.5M3 2.5H10.5C11.6046 2.5 12.5 3.39543 12.5 4.5V5.5V8" stroke="#0077C1" stroke-linejoin="round"/>
  <path d="m8.94 9.47c0-1.18 1.3-1.9 2.29-1.27l4 2.5c0.941 0.587 0.941 1.96 0 2.54l-4 2.5c-0.999 0.624-2.29-0.0947-2.29-1.27zm1.76-0.424c-0.333-0.208-0.765 0.0316-0.765 0.424v5c0 0.393 0.432 0.632 0.765 0.424l4-2.5c0.314-0.196 0.314-0.653 0-0.848z" clip-rule="evenodd" fill="#208a3c" fill-rule="evenodd"/>
</svg>
